<svg id="Capa_1" enable-background="new 0 0 512 512" height="512" viewBox="0 0 512 512" width="512" xmlns="http://www.w3.org/2000/svg"><g><g id="Page-1_18_"><g id="_x30_19---Gaming-Setup"><path id="Shape_121_" d="m34.133 349.867h119.467v29.687l-63.147 44.245c-8.394 5.874-10.954 17.164-5.913 26.083 5.041 8.92 16.032 12.552 25.395 8.391l69.265-30.805 69.299 30.805c9.365 4.176 20.37.549 25.416-8.378s2.48-20.226-5.926-26.097l-63.189-44.244v-29.687h93.867v93.867c0 9.426 7.641 17.067 17.067 17.067h30.601c4.524-.011 8.861-1.808 12.066-5.001l29.133-29.133h35.601l29.133 29.133c3.206 3.192 7.542 4.989 12.066 5.001h30.601c9.426 0 17.067-7.641 17.067-17.067v-366.934c0-14.138-11.461-25.6-25.6-25.6h-162.135c-14.138 0-25.6 11.462-25.6 25.6v51.2h-264.534c-18.851 0-34.133 15.282-34.133 34.133v153.6c0 18.852 15.282 34.134 34.133 34.134zm225.28 90.632c-.119 1.067-.86 1.962-1.886 2.278-.67.231-1.404.195-2.048-.102l-72.781-32.341c-2.207-.972-4.722-.972-6.929 0l-72.789 32.341c-.639.293-1.366.33-2.031.102-1.011-.341-1.745-1.222-1.898-2.278s.3-2.108 1.172-2.723l64.597-45.244h28.757l64.631 45.227c.914.592 1.387 1.669 1.205 2.74zm-71.68-65.032h-17.067v-25.6h17.067zm140.066 34.133 31.573-31.573c1.603-1.635 3.795-2.557 6.084-2.56h79.701c2.289.003 4.482.925 6.084 2.56l31.573 31.573zm18.535 34.133h-30.601v-17.067h47.667zm117.999 0-17.067-17.067h47.667v17.067zm18.534-375.466-31.573 31.573c-1.603 1.635-3.795 2.557-6.084 2.56h-79.727c-2.289-.003-4.482-.925-6.084-2.56l-31.599-31.573zm-167.134 12.066 31.573 31.573c4.801 4.854 11.349 7.578 18.176 7.561h79.701c6.814.017 13.352-2.697 18.15-7.535l31.573-31.573v64.708h-8.506c-4.713 0-8.533 3.82-8.533 8.533s3.82 8.533 8.533 8.533h8.533v17.067h-8.533c-4.713 0-8.533 3.821-8.533 8.533 0 4.713 3.82 8.533 8.533 8.533h8.533v17.067h-8.533c-4.713 0-8.533 3.821-8.533 8.533 0 4.713 3.82 8.533 8.533 8.533h8.533v17.067h-8.533c-4.713 0-8.533 3.821-8.533 8.533 0 4.713 3.82 8.533 8.533 8.533h8.533v17.068h-8.533c-4.713 0-8.533 3.821-8.533 8.533 0 4.713 3.82 8.533 8.533 8.533h8.533v17.067h-8.533c-4.713 0-8.533 3.821-8.533 8.533s3.82 8.533 8.533 8.533h8.533v64.734l-31.573-31.573c-4.801-4.854-11.349-7.578-18.176-7.561h-79.701c-6.814-.017-13.352 2.697-18.15 7.535l-31.573 31.573v-47.642h8.533c18.851 0 34.133-15.282 34.133-34.133v-153.6c0-18.851-15.282-34.133-34.133-34.133h-8.559v-47.666zm-298.666 81.8c0-9.426 7.641-17.067 17.067-17.067h290.133c9.426 0 17.067 7.641 17.067 17.067v153.6c0 9.426-7.641 17.067-17.067 17.067h-290.134c-9.426 0-17.067-7.641-17.067-17.067v-153.6z"/><path id="Shape_120_" d="m42.667 196.267c2.263 0 4.433-.9 6.033-2.5l17.066-17.067c3.234-3.348 3.188-8.671-.104-11.962-3.292-3.292-8.614-3.338-11.962-.104l-17.066 17.066c-2.44 2.44-3.169 6.11-1.849 9.298 1.32 3.189 4.431 5.268 7.882 5.269z"/><path id="Shape_119_" d="m42.667 238.933c2.263 0 4.433-.9 6.033-2.5l59.733-59.733c3.234-3.348 3.188-8.671-.104-11.962-3.292-3.292-8.614-3.338-11.962-.104l-59.733 59.733c-2.44 2.44-3.169 6.11-1.849 9.298 1.32 3.189 4.431 5.268 7.882 5.268z"/><path id="Shape_118_" d="m405.333 256c12.08 0 22.97-7.277 27.593-18.437s2.068-24.007-6.474-32.548c-8.542-8.542-21.388-11.097-32.548-6.474s-18.437 15.513-18.437 27.593c0 16.494 13.371 29.866 29.866 29.866zm0-42.667c7.069 0 12.8 5.731 12.8 12.8s-5.731 12.8-12.8 12.8-12.8-5.731-12.8-12.8 5.731-12.8 12.8-12.8z"/><path id="Shape_117_" d="m392.533 264.533c-4.713 0-8.533 3.82-8.533 8.533v25.6c0 4.713 3.82 8.533 8.533 8.533s8.533-3.82 8.533-8.533v-25.6c.001-4.712-3.82-8.533-8.533-8.533z"/><path id="Shape_116_" d="m418.133 264.533c-4.713 0-8.533 3.82-8.533 8.533v25.6c0 4.713 3.82 8.533 8.533 8.533s8.533-3.82 8.533-8.533v-25.6c.001-4.712-3.82-8.533-8.533-8.533z"/></g></g></g></svg>